#!OML:ASF E:/inclinewalkrobotboard/Project1/Captureday1/Session1/subject1.ASF
:FULLY-SPECIFIED
:DEGREES
363
root 0 0 0 -1.1643226240409736 -2.8456314102067957 -0.8793566746839463
lowerback 10.947208167622861 0.5610967089910134 0.4714008612421502
upperback -1.109193677572637 0.8798871229330568 0.9149856792762803
thorax -7.287762575252512 0.4047239672405975 0.45003643800830406
lowerneck -13.409277877789421 -1.4122964398462527 0.2123215952376905
upperneck 19.045806572889074 -1.4139804186620117 -2.345223683922081
head 8.212935962271068 -0.8126824841481435 -1.0022946290942505
rclavicle -4.589990388416259E-16 -2.433510586682881E-16
rhumerus -11.55569451063103 -6.629448799525507 -67.13837179964563
rradius 43.15765395607169
rwrist 12.119934701281096
rhand -23.675544444660048 -5.891509911725487
rfingers 7.1250200000001325
rthumb 3.0274245753927556 -36.05099240319004
lclavicle -9.392844706669152E-16 -8.207430499595251E-16
lhumerus -11.156819261852302 -4.409737685695193 67.82130499862323
lradius 44.659153252424325
lwrist -5.755942449804198
lhand -33.739522929137294 -13.014351746257624
lfingers 7.1250200000001245
lthumb -7.014985709577845 16.079628885612593
rfemur -16.724318384903018 6.914837308083683 25.999154125875194
rtibia 23.52470248750024
rfoot -10.947232440579278 -8.42743193493745
rtoes 0.8107370140594015
lfemur 16.54910825076513 -1.8936145346710376 -28.90623099343295
ltibia 35.22683464596169
lfoot -5.248537692536933 -11.60641946284787
ltoes -7.811233477537279
364
root 0 0 0 -1.175704493254643 -2.8427976985995933 -0.8916358484174427
lowerback 10.942948994271852 0.5599563527203887 0.4760899782069525
upperback -1.0948074889147401 0.8792745342097377 0.921370941080325
thorax -7.268847109833655 0.40414570700027364 0.45524549836494665
lowerneck -13.44202660459344 -1.4261845361398775 0.19347967957039025
upperneck 19.04722764068626 -1.4346240662611633 -2.3178389537409685
head 8.218768374692827 -0.821653127498166 -0.9921365019348067
rclavicle -4.601951178850181E-16 -2.3394627769661364E-16
rhumerus -11.732987777520107 -6.7462602511464285 -67.24887200871858
rradius 42.98775849766904
rwrist 12.035213154898436
rhand -23.61570396239976 -5.5985406714380215
rfingers 7.125020000000133
rthumb 3.08843368625879 -35.761600605246194
lclavicle -9.511642413672587E-16 -8.174899101462915E-16
lhumerus -11.553020633209176 -4.3135765754744035 68.10540215185685
lradius 44.34292338193795
lwrist -5.5386971700221626
lhand -33.6027415399552 -12.285841194055484
lfingers 7.125020000000126
lthumb -6.8843567339445215 16.801726794649518
rfemur -7.3656864985335435 8.428388495057746 30.12367881783335
rtibia 19.128380434535902
rfoot -14.48329090378044 -7.090654356388741
rtoes 1.4520206233796153
lfemur 12.280597690008522 -1.3110454188170162 -26.48546145753984
ltibia 40.72083452075965
lfoot -1.802693801851131 -12.820192531002968
ltoes -7.682842800646209
365
root 0 0 0 -1.1837517284023207 -2.8411642365237144 -0.8999659823968136
lowerback 10.940121939429329 0.5593336733557799 0.4799668723550326
upperback -1.0852460228511027 0.8790488366352894 0.9256457414143063
thorax -7.255921887858776 0.4037887326025294 0.45862682831406465
lowerneck -13.464803039339845 -1.4357289609809625 0.1806525111397978
upperneck 19.04850823864971 -1.4482446541654939 -2.2987154128618372
head 8.222792146673902 -0.8277161349205114 -0.9851021352997595
rclavicle -4.612271830579966E-16 -2.281714850734669E-16
rhumerus -11.841591986204676 -6.815992244099338 -67.31732739252105
rradius 42.88357178214843
rwrist 11.983448281235082
rhand -23.579195072424714 -5.417913590212596
rfingers 7.125020000000134
rthumb 3.126200662640734 -35.58254231271733
lclavicle -9.636805893379136E-16 -8.1519170741438515E-16
lhumerus -11.903638136536335 -4.22798460126341 68.35669624645145
lradius 44.06253871645965
lwrist -5.34619981988457
lhand -33.48137038179559 -11.637270699955693
lfingers 7.125020000000128
lthumb -6.768592000811769 17.438157342940116
rfemur 1.34567255951049 9.244569719090117 33.65148611938199
rtibia 19.22665099682674
rfoot -16.309878067131052 -5.385885179392645
rtoes 2.953669097942499
lfemur 4.479587613483309 -0.4255123827016995 -22.451683184936286
ltibia 48.49475346026135
lfoot 2.8885152514604417 -13.931363511511712
ltoes -7.161887521089802
366
root 0 0 0 -1.184755505170444 -2.8419004981810216 -0.9003136633783952
lowerback 10.940173786507696 0.5596659539460792 0.4813431268893532
upperback -1.0855423282950847 0.8794154908917414 0.9257112895000816
thorax -7.255488694638327 0.40388101147212 0.45830537051162806
lowerneck -13.466608946295466 -1.436174983481108 0.18010304586270953
upperneck 19.04953437244881 -1.4475481040805342 -2.2971161711058574
head 8.223172538283025 -0.8277819256945342 -0.9846671412724595
rclavicle -4.610460375528618E-16 -2.3141541045090013E-16
rhumerus -11.784281622746999 -6.774511281972805 -67.28354420374959
rradius 42.93760362543563
rwrist 12.010748462109039
rhand -23.598587476556375 -5.510508311915455
rfingers 7.125020000000133
rthumb 3.1072851740741756 -35.67018198946757
lclavicle -9.727214270405989E-16 -8.136082596457037E-16
lhumerus -12.071817119344065 -4.185893588084542 68.47645455614767
lradius 43.92888922162938
lwrist -5.255268347135318
lhand -33.4231322392672 -11.325417946402743
lfingers 7.125020000000128
lthumb -6.71311753118158 17.73799577056576
rfemur 7.4490449488901795 9.363607893622591 35.915516336484366
rtibia 22.438264358961693
rfoot -16.537865926885498 -3.8302450122883087
rtoes 4.618605205153425
lfemur -5.853150039139401 0.5878767979883947 -17.678062815812176
ltibia 55.82735080618119
lfoot 6.544542009198535 -13.781572164735369
ltoes -6.375533268949203
367
root 0 0 0 -1.1772680803664572 -2.845309892290676 -0.8913130163954901
lowerback 10.943640033864444 0.5611224114597078 0.47970887250945504
upperback -1.0974219942365746 0.8803345376185346 0.9207844797633857
thorax -7.2699378694491 0.4044920846419354 0.45357871200334576
lowerneck -13.443500000404653 -1.4258400509020186 0.19412285227041293
upperneck 19.0502099434045 -1.43012384726649 -2.3163275524055247
head 8.219210690217443 -0.8208348057352041 -0.9920558098821519
rclavicle -4.609861369775516E-16 -2.4611476577520306E-16
rhumerus -11.516602030078467 -6.593925158287867 -67.1195552091008
rradius 43.191674056474334
rwrist 12.136965247323037
rhand -23.68854623387786 -5.9492163733397945
rfingers 7.1250200000001325
rthumb 3.016637348008243 -36.09536286878199
lclavicle -9.768722449159568E-16 -8.111197754917223E-16
lhumerus -12.02336977827436 -4.195894149479504 68.43849597733252
lradius 43.97144377605565
lwrist -5.28626966219272
lhand -33.440772515818075 -11.421429975116785
lfingers 7.125020000000128
lthumb -6.729842360149044 17.634437135702907
rfemur 10.94496792276206 9.140248624697103 37.07749740693151
rtibia 26.213583914551158
rfoot -16.04466263090616 -2.722390832166697
rtoes 5.875804559483315
lfemur -16.03481497452438 1.2233454023764998 -13.55294446687147
ltibia 59.39578743694223
lfoot 7.814162117934975 -11.987651222626408
ltoes -5.415158873778969
368
root 0 0 0 -1.1635589023212927 -2.8504139094944714 -0.875387722225839
lowerback 10.94962867393403 0.5634245709561365 0.47630189272091483
upperback -1.1175390977293813 0.8817675657766344 0.9121208435242252
thorax -7.29523633218755 0.4054281922635504 0.4457693140495095
lowerneck -13.402247621649613 -1.4076601114928962 0.21885250633206937
upperneck 19.05040742522221 -1.4009125015209543 -2.3504579153976284
head 8.211911623134716 -0.8088700275293808 -1.0050991368815618
rclavicle -4.638479259881295E-16 -2.678516327199553E-16
rhumerus -11.11239891252102 -6.323464365120472 -66.87107150126323
rradius 43.574250245570084
rwrist 12.326354897658517
rhand -23.824107395111408 -6.6095961104586305
rfingers 7.125020000000131
rthumb 2.8800206549858913 -36.73988220970139
lclavicle -9.770170734776247E-16 -8.083338055909485E-16
lhumerus -11.856434462070833 -4.234630963177564 68.3148957161101
lradius 44.10899295713273
lwrist -5.383467774007803
lhand -33.499979067825414 -11.741911776046166
lfingers 7.125020000000127
lthumb -6.786066898088336 17.31355978133346
rfemur 12.783327925730521 8.841614478473323 37.59784258975846
rtibia 29.38450942214523
rfoot -15.40531049526445 -2.0121658141465915
rtoes 6.714136652675951
lfemur -24.375742759441103 1.1826149057402797 -10.707221305141099
ltibia 58.08912471644912
lfoot 7.053422692770566 -8.937259412293692
ltoes -4.000679980040872
369
root 0 0 0 -1.1492381353947738 -2.855445593711407 -0.8588379855397104
lowerback 10.955794953564792 0.5657535761962177 0.4728112625153795
upperback -1.1380282972099443 0.883311941328673 0.9030806659899503
thorax -7.321198711605157 0.40634091565466096 0.43789452931026773
lowerneck -13.359552790686905 -1.388867890296779 0.2444863809126227
upperneck 19.0501727279085 -1.3712324159600942 -2.3855760581911944
head 8.204191936042191 -0.7965590777256061 -1.0185191195273127
rclavicle -4.678179110766377E-16 -2.872982917156764E-16
rhumerus -10.746885877423203 -6.078898375966853 -66.64705976485789
rradius 43.917931598633366
rwrist 12.496815656560168
rhand -23.946204027530737 -7.202837053488871
rfingers 7.125020000000129
rthumb 2.7571904666603193 -37.32157476953111
lclavicle -9.783049428780742E-16 -8.043229489736115E-16
lhumerus -11.724248558100058 -4.2652056969188905 68.21763698129494
lradius 44.21681368151119
lwrist -5.460555370295113
lhand -33.54730799384063 -11.999634179589469
lfingers 7.125020000000127
lthumb -6.830627875353587 17.061345269561695
rfemur 13.710500301374033 8.557462723727124 37.79352339955362
rtibia 31.872069129221277
rfoot -14.794466553227666 -1.5572733644745647
rtoes 7.285838813997235
lfemur -30.643278700366217 0.5683166544530146 -9.001799803277104
ltibia 52.93299662178137
lfoot 5.0153009719214605 -5.176344366565294
ltoes -2.1532181538720545
